# xmcd
#
# Track frame offsets:
#	150
#	16155
#	35487
#	50239
#	68407
#	81330
#	99310
#	120107
#	135962
#	148075
#	164685
#	181732
#	197072
#	212612
#
# Disc length: 3146 seconds
#
# Revision: 0
# Processed by: cddbd v1.5.2PL0 Copyright (c) Steve Scherf et al.
# Submitted via: EZCDAudioConverter 6.0.9.1
#
DISCID=b70c480e
DTITLE=Het beste uit de originele Nederlandstalige hits
DYEAR=1900
DGENRE=
TTITLE0=Zjef Vanuytsel - Zotte morgen
TTITLE1=Lisbeth List and Ramses Shaffy - Pastorale
TTITLE2=Wim Sonneveld - Het dorp
TTITLE3=Louis Neefs - Margrietje
TTITLE4=Conny Vandenbos - Sjakie van de hoek
TTITLE5=Boudewijn De Groot - Jimmy
TTITLE6=The Scene - Bllauw
TTITLE7=Noorkaaap - Arme Joe
TTITLE8=Peter koelewijn and zijn Rockets - Kom van dat dak af
TTITLE9=Raymond Van Het Groenewoud - Gelukkig zijn
TTITLE10=Gunther Neef - Geluk
TTITLE11=Egbert Douwe - Kom uit de bedstee, m'en liefst
TTITLE12=Armand - Ben ik te min
TTITLE13=Willem Vermandere - Lat mie maar lopen
EXTD=
EXTT0=
EXTT1=
EXTT2=
EXTT3=
EXTT4=
EXTT5=
EXTT6=
EXTT7=
EXTT8=
EXTT9=
EXTT10=
EXTT11=
EXTT12=
EXTT13=
PLAYORDER=
